<?xml version="1.0" encoding="UTF-8" standalone="no"?>
<!-- Created with Inkscape (http://www.inkscape.org/) -->

<svg
   xmlns:dc="http://purl.org/dc/elements/1.1/"
   xmlns:cc="http://creativecommons.org/ns#"
   xmlns:rdf="http://www.w3.org/1999/02/22-rdf-syntax-ns#"
   xmlns:svg="http://www.w3.org/2000/svg"
   xmlns="http://www.w3.org/2000/svg"
   xmlns:xlink="http://www.w3.org/1999/xlink"
   xmlns:sodipodi="http://sodipodi.sourceforge.net/DTD/sodipodi-0.dtd"
   xmlns:inkscape="http://www.inkscape.org/namespaces/inkscape"
   width="611.76111"
   height="646.2066"
   id="svg2"
   version="1.1"
   inkscape:version="0.48.2 r9819"
   sodipodi:docname="vim_learning_curve.svg">
  <defs
     id="defs4">
    <linearGradient
       inkscape:collect="always"
       id="linearGradient4490">
      <stop
         style="stop-color:#cecf27;stop-opacity:1;"
         offset="0"
         id="stop4492" />
      <stop
         style="stop-color:#cecf27;stop-opacity:0;"
         offset="1"
         id="stop4494" />
    </linearGradient>
    <linearGradient
       id="linearGradient4190">
      <stop
         style="stop-color:#000000;stop-opacity:1;"
         offset="0"
         id="stop4192" />
      <stop
         style="stop-color:#000000;stop-opacity:0;"
         offset="1"
         id="stop4194" />
    </linearGradient>
    <linearGradient
       id="linearGradient5058">
      <stop
         style="stop-color:#77d917;stop-opacity:1;"
         offset="0"
         id="stop5060" />
      <stop
         style="stop-color:#36630a;stop-opacity:1;"
         offset="1"
         id="stop5062" />
    </linearGradient>
    <marker
       inkscape:stockid="Arrow1Lend"
       orient="auto"
       refY="0"
       refX="0"
       id="Arrow1Lend"
       style="overflow:visible">
      <path
         id="path3786"
         d="M 0,0 5,-5 -12.5,0 5,5 0,0 z"
         style="fill-rule:evenodd;stroke:#000000;stroke-width:1pt;marker-start:none"
         transform="matrix(-0.8,0,0,-0.8,-10,0)"
         inkscape:connector-curvature="0" />
    </marker>
    <marker
       inkscape:stockid="Arrow1Lstart"
       orient="auto"
       refY="0"
       refX="0"
       id="Arrow1Lstart"
       style="overflow:visible">
      <path
         id="path3783"
         d="M 0,0 5,-5 -12.5,0 5,5 0,0 z"
         style="fill-rule:evenodd;stroke:#000000;stroke-width:1pt;marker-start:none"
         transform="matrix(0.8,0,0,0.8,10,0)"
         inkscape:connector-curvature="0" />
    </marker>
    <radialGradient
       inkscape:collect="always"
       xlink:href="#linearGradient5058"
       id="radialGradient4308"
       gradientUnits="userSpaceOnUse"
       gradientTransform="translate(5.8230575,118.94355)"
       cx="109.57621"
       cy="152.69136"
       fx="109.57621"
       fy="152.69136"
       r="8.8578053" />
    <radialGradient
       inkscape:collect="always"
       xlink:href="#linearGradient5058"
       id="radialGradient4310"
       gradientUnits="userSpaceOnUse"
       gradientTransform="translate(5.8230575,118.94355)"
       cx="109.57621"
       cy="152.69136"
       fx="109.57621"
       fy="152.69136"
       r="8.8578053" />
    <radialGradient
       inkscape:collect="always"
       xlink:href="#linearGradient5058"
       id="radialGradient4312"
       gradientUnits="userSpaceOnUse"
       gradientTransform="translate(5.8230575,118.94355)"
       cx="109.57621"
       cy="152.69136"
       fx="109.57621"
       fy="152.69136"
       r="8.8578053" />
    <radialGradient
       inkscape:collect="always"
       xlink:href="#linearGradient5058"
       id="radialGradient4314"
       gradientUnits="userSpaceOnUse"
       gradientTransform="translate(28.317053,118.94355)"
       cx="109.57621"
       cy="152.69136"
       fx="109.57621"
       fy="152.69136"
       r="8.8578053" />
    <radialGradient
       inkscape:collect="always"
       xlink:href="#linearGradient5058"
       id="radialGradient4316"
       gradientUnits="userSpaceOnUse"
       gradientTransform="translate(29.698398,118.94355)"
       cx="109.57621"
       cy="152.69136"
       fx="109.57621"
       fy="152.69136"
       r="8.8578053" />
    <radialGradient
       inkscape:collect="always"
       xlink:href="#linearGradient5058"
       id="radialGradient4318"
       gradientUnits="userSpaceOnUse"
       gradientTransform="translate(29.698398,118.94355)"
       cx="109.57621"
       cy="152.69136"
       fx="109.57621"
       fy="152.69136"
       r="8.8578053" />
    <radialGradient
       inkscape:collect="always"
       xlink:href="#linearGradient5058"
       id="radialGradient4386"
       gradientUnits="userSpaceOnUse"
       gradientTransform="translate(241.04448,118.94355)"
       cx="109.57621"
       cy="152.69136"
       fx="109.57621"
       fy="152.69136"
       r="8.8578053" />
    <radialGradient
       inkscape:collect="always"
       xlink:href="#linearGradient5058"
       id="radialGradient4388"
       gradientUnits="userSpaceOnUse"
       gradientTransform="translate(241.04448,118.94355)"
       cx="109.57621"
       cy="152.69136"
       fx="109.57621"
       fy="152.69136"
       r="8.8578053" />
    <radialGradient
       inkscape:collect="always"
       xlink:href="#linearGradient5058"
       id="radialGradient4390"
       gradientUnits="userSpaceOnUse"
       gradientTransform="translate(241.04448,118.94355)"
       cx="109.57621"
       cy="152.69136"
       fx="109.57621"
       fy="152.69136"
       r="8.8578053" />
    <radialGradient
       inkscape:collect="always"
       xlink:href="#linearGradient5058"
       id="radialGradient4392"
       gradientUnits="userSpaceOnUse"
       gradientTransform="translate(301.13308,118.94355)"
       cx="109.57621"
       cy="152.69136"
       fx="109.57621"
       fy="152.69136"
       r="8.8578053" />
    <radialGradient
       inkscape:collect="always"
       xlink:href="#linearGradient5058"
       id="radialGradient4394"
       gradientUnits="userSpaceOnUse"
       gradientTransform="translate(301.13308,118.94355)"
       cx="109.57621"
       cy="152.69136"
       fx="109.57621"
       fy="152.69136"
       r="8.8578053" />
    <linearGradient
       inkscape:collect="always"
       xlink:href="#linearGradient4490"
       id="linearGradient4496"
       x1="92.971878"
       y1="407.31598"
       x2="348.2702"
       y2="407.31598"
       gradientUnits="userSpaceOnUse" />
    <linearGradient
       inkscape:collect="always"
       xlink:href="#linearGradient4490"
       id="linearGradient4500"
       gradientUnits="userSpaceOnUse"
       x1="92.971878"
       y1="407.31598"
       x2="348.2702"
       y2="407.31598" />
  </defs>
  <sodipodi:namedview
     id="base"
     pagecolor="#ffffff"
     bordercolor="#666666"
     borderopacity="1.0"
     inkscape:pageopacity="0.0"
     inkscape:pageshadow="2"
     inkscape:zoom="0.8417907"
     inkscape:cx="276.12306"
     inkscape:cy="283.18515"
     inkscape:document-units="px"
     inkscape:current-layer="layer1"
     showgrid="false"
     inkscape:window-width="1399"
     inkscape:window-height="847"
     inkscape:window-x="0"
     inkscape:window-y="31"
     inkscape:window-maximized="1"
     showguides="true"
     inkscape:guide-bbox="true"
     fit-margin-top="10"
     fit-margin-left="10"
     fit-margin-right="10"
     fit-margin-bottom="10" />
  <metadata
     id="metadata7">
    <rdf:RDF>
      <cc:Work
         rdf:about="">
        <dc:format>image/svg+xml</dc:format>
        <dc:type
           rdf:resource="http://purl.org/dc/dcmitype/StillImage" />
        <dc:title />
      </cc:Work>
    </rdf:RDF>
  </metadata>
  <g
     inkscape:groupmode="layer"
     id="layer4"
     inkscape:label="hidden"
     style="display:none"
     transform="translate(-5.662071,-5.8313598)">
    <text
       xml:space="preserve"
       style="font-size:40px;font-style:normal;font-weight:normal;line-height:125%;letter-spacing:0px;word-spacing:0px;fill:#000000;fill-opacity:1;stroke:none;display:inline;font-family:Sans"
       x="-472.09311"
       y="37.811836"
       id="text5025"
       sodipodi:linespacing="125%"
       transform="matrix(0,-1,1,0,0,0)"><tspan
         sodipodi:role="line"
         id="tspan5027"
         x="-472.09311"
         y="37.811836">Knowledge</tspan></text>
    <text
       xml:space="preserve"
       style="font-size:40px;font-style:normal;font-weight:normal;line-height:125%;letter-spacing:0px;word-spacing:0px;fill:#000000;fill-opacity:1;stroke:none;display:inline;font-family:Sans"
       x="270.72815"
       y="653.83978"
       id="text5029"
       sodipodi:linespacing="125%"><tspan
         sodipodi:role="line"
         id="tspan5031"
         x="270.72815"
         y="653.83978">Time</tspan></text>
    <g
       id="use5083"
       style="display:inline"
       transform="matrix(0.61403493,0,0,0.61403493,-24.783904,61.504411)">
      <g
         id="g3094">
        <path
           sodipodi:type="arc"
           style="color:#000000;fill:#4e9a06;fill-opacity:1;fill-rule:nonzero;stroke:none;stroke-width:3;marker:none;visibility:visible;display:inline;overflow:visible;enable-background:accumulate"
           id="path3096"
           sodipodi:cx="111.93044"
           sodipodi:cy="154.98523"
           sodipodi:rx="8.8578053"
           sodipodi:ry="8.8578053"
           d="m 120.78825,154.98523 c 0,4.89203 -3.96578,8.8578 -8.85781,8.8578 -4.89203,0 -8.8578,-3.96577 -8.8578,-8.8578 0,-4.89203 3.96577,-8.85781 8.8578,-8.85781 4.89203,0 8.85781,3.96578 8.85781,8.85781 z"
           transform="translate(45.775429,31.024559)" />
        <path
           transform="translate(45.775429,31.024559)"
           d="m 120.78825,154.98523 c 0,4.89203 -3.96578,8.8578 -8.85781,8.8578 -4.89203,0 -8.8578,-3.96577 -8.8578,-8.8578 0,-4.89203 3.96577,-8.85781 8.8578,-8.85781 4.89203,0 8.85781,3.96578 8.85781,8.85781 z"
           sodipodi:ry="8.8578053"
           sodipodi:rx="8.8578053"
           sodipodi:cy="154.98523"
           sodipodi:cx="111.93044"
           id="path3098"
           style="color:#000000;fill:url(#radialGradient4394);fill-opacity:1;fill-rule:nonzero;stroke:none;stroke-width:3;marker:none;visibility:visible;display:inline;overflow:visible;enable-background:accumulate"
           sodipodi:type="arc" />
      </g>
    </g>
    <g
       id="use5085"
       style="display:inline"
       transform="matrix(0.61403493,0,0,0.61403493,-24.783904,87.368401)">
      <g
         id="g3104">
        <path
           sodipodi:type="arc"
           style="color:#000000;fill:#4e9a06;fill-opacity:1;fill-rule:nonzero;stroke:none;stroke-width:3;marker:none;visibility:visible;display:inline;overflow:visible;enable-background:accumulate"
           id="path3106"
           sodipodi:cx="111.93044"
           sodipodi:cy="154.98523"
           sodipodi:rx="8.8578053"
           sodipodi:ry="8.8578053"
           d="m 120.78825,154.98523 c 0,4.89203 -3.96578,8.8578 -8.85781,8.8578 -4.89203,0 -8.8578,-3.96577 -8.8578,-8.8578 0,-4.89203 3.96577,-8.85781 8.8578,-8.85781 4.89203,0 8.85781,3.96578 8.85781,8.85781 z"
           transform="translate(45.775429,31.024559)" />
        <path
           transform="translate(45.775429,31.024559)"
           d="m 120.78825,154.98523 c 0,4.89203 -3.96578,8.8578 -8.85781,8.8578 -4.89203,0 -8.8578,-3.96577 -8.8578,-8.8578 0,-4.89203 3.96577,-8.85781 8.8578,-8.85781 4.89203,0 8.85781,3.96578 8.85781,8.85781 z"
           sodipodi:ry="8.8578053"
           sodipodi:rx="8.8578053"
           sodipodi:cy="154.98523"
           sodipodi:cx="111.93044"
           id="path3108"
           style="color:#000000;fill:url(#radialGradient4392);fill-opacity:1;fill-rule:nonzero;stroke:none;stroke-width:3;marker:none;visibility:visible;display:inline;overflow:visible;enable-background:accumulate"
           sodipodi:type="arc" />
      </g>
    </g>
    <g
       id="use5087"
       style="display:inline"
       transform="matrix(0.61403493,0,0,0.61403493,-24.783904,153.52763)">
      <g
         id="g3114">
        <path
           sodipodi:type="arc"
           style="color:#000000;fill:#4e9a06;fill-opacity:1;fill-rule:nonzero;stroke:none;stroke-width:3;marker:none;visibility:visible;display:inline;overflow:visible;enable-background:accumulate"
           id="path3116"
           sodipodi:cx="111.93044"
           sodipodi:cy="154.98523"
           sodipodi:rx="8.8578053"
           sodipodi:ry="8.8578053"
           d="m 120.78825,154.98523 c 0,4.89203 -3.96578,8.8578 -8.85781,8.8578 -4.89203,0 -8.8578,-3.96577 -8.8578,-8.8578 0,-4.89203 3.96577,-8.85781 8.8578,-8.85781 4.89203,0 8.85781,3.96578 8.85781,8.85781 z"
           transform="translate(45.775429,31.024559)" />
        <path
           transform="translate(45.775429,31.024559)"
           d="m 120.78825,154.98523 c 0,4.89203 -3.96578,8.8578 -8.85781,8.8578 -4.89203,0 -8.8578,-3.96577 -8.8578,-8.8578 0,-4.89203 3.96577,-8.85781 8.8578,-8.85781 4.89203,0 8.85781,3.96578 8.85781,8.85781 z"
           sodipodi:ry="8.8578053"
           sodipodi:rx="8.8578053"
           sodipodi:cy="154.98523"
           sodipodi:cx="111.93044"
           id="path3118"
           style="color:#000000;fill:url(#radialGradient4390);fill-opacity:1;fill-rule:nonzero;stroke:none;stroke-width:3;marker:none;visibility:visible;display:inline;overflow:visible;enable-background:accumulate"
           sodipodi:type="arc" />
      </g>
    </g>
    <g
       id="use5089"
       style="display:inline"
       transform="matrix(0.61403493,0,0,0.61403493,-24.783904,178.54939)">
      <g
         id="g3124">
        <path
           sodipodi:type="arc"
           style="color:#000000;fill:#4e9a06;fill-opacity:1;fill-rule:nonzero;stroke:none;stroke-width:3;marker:none;visibility:visible;display:inline;overflow:visible;enable-background:accumulate"
           id="path3126"
           sodipodi:cx="111.93044"
           sodipodi:cy="154.98523"
           sodipodi:rx="8.8578053"
           sodipodi:ry="8.8578053"
           d="m 120.78825,154.98523 c 0,4.89203 -3.96578,8.8578 -8.85781,8.8578 -4.89203,0 -8.8578,-3.96577 -8.8578,-8.8578 0,-4.89203 3.96577,-8.85781 8.8578,-8.85781 4.89203,0 8.85781,3.96578 8.85781,8.85781 z"
           transform="translate(45.775429,31.024559)" />
        <path
           transform="translate(45.775429,31.024559)"
           d="m 120.78825,154.98523 c 0,4.89203 -3.96578,8.8578 -8.85781,8.8578 -4.89203,0 -8.8578,-3.96577 -8.8578,-8.8578 0,-4.89203 3.96577,-8.85781 8.8578,-8.85781 4.89203,0 8.85781,3.96578 8.85781,8.85781 z"
           sodipodi:ry="8.8578053"
           sodipodi:rx="8.8578053"
           sodipodi:cy="154.98523"
           sodipodi:cx="111.93044"
           id="path3128"
           style="color:#000000;fill:url(#radialGradient4388);fill-opacity:1;fill-rule:nonzero;stroke:none;stroke-width:3;marker:none;visibility:visible;display:inline;overflow:visible;enable-background:accumulate"
           sodipodi:type="arc" />
      </g>
    </g>
    <g
       id="use5091"
       style="display:inline"
       transform="matrix(0.61403493,0,0,0.61403493,-24.783904,202.72295)">
      <g
         id="g3134">
        <path
           sodipodi:type="arc"
           style="color:#000000;fill:#4e9a06;fill-opacity:1;fill-rule:nonzero;stroke:none;stroke-width:3;marker:none;visibility:visible;display:inline;overflow:visible;enable-background:accumulate"
           id="path3136"
           sodipodi:cx="111.93044"
           sodipodi:cy="154.98523"
           sodipodi:rx="8.8578053"
           sodipodi:ry="8.8578053"
           d="m 120.78825,154.98523 c 0,4.89203 -3.96578,8.8578 -8.85781,8.8578 -4.89203,0 -8.8578,-3.96577 -8.8578,-8.8578 0,-4.89203 3.96577,-8.85781 8.8578,-8.85781 4.89203,0 8.85781,3.96578 8.85781,8.85781 z"
           transform="translate(45.775429,31.024559)" />
        <path
           transform="translate(45.775429,31.024559)"
           d="m 120.78825,154.98523 c 0,4.89203 -3.96578,8.8578 -8.85781,8.8578 -4.89203,0 -8.8578,-3.96577 -8.8578,-8.8578 0,-4.89203 3.96577,-8.85781 8.8578,-8.85781 4.89203,0 8.85781,3.96578 8.85781,8.85781 z"
           sodipodi:ry="8.8578053"
           sodipodi:rx="8.8578053"
           sodipodi:cy="154.98523"
           sodipodi:cx="111.93044"
           id="path3138"
           style="color:#000000;fill:url(#radialGradient4386);fill-opacity:1;fill-rule:nonzero;stroke:none;stroke-width:3;marker:none;visibility:visible;display:inline;overflow:visible;enable-background:accumulate"
           sodipodi:type="arc" />
      </g>
    </g>
    <g
       id="use5093"
       style="fill:#36630a;fill-opacity:1;display:inline"
       transform="matrix(0.61403493,0,0,0.61403493,-24.783904,-31.224527)">
      <g
         id="g3144"
         style="fill:#36630a;fill-opacity:1">
        <path
           sodipodi:type="arc"
           style="color:#000000;fill:#36630a;fill-opacity:1;fill-rule:nonzero;stroke:none;stroke-width:3;marker:none;visibility:visible;display:inline;overflow:visible;enable-background:accumulate"
           id="path3146"
           sodipodi:cx="111.93044"
           sodipodi:cy="154.98523"
           sodipodi:rx="8.8578053"
           sodipodi:ry="8.8578053"
           d="m 120.78825,154.98523 c 0,4.89203 -3.96578,8.8578 -8.85781,8.8578 -4.89203,0 -8.8578,-3.96577 -8.8578,-8.8578 0,-4.89203 3.96577,-8.85781 8.8578,-8.85781 4.89203,0 8.85781,3.96578 8.85781,8.85781 z"
           transform="translate(45.775429,31.024559)" />
        <path
           transform="translate(45.775429,31.024559)"
           d="m 120.78825,154.98523 c 0,4.89203 -3.96578,8.8578 -8.85781,8.8578 -4.89203,0 -8.8578,-3.96577 -8.8578,-8.8578 0,-4.89203 3.96577,-8.85781 8.8578,-8.85781 4.89203,0 8.85781,3.96578 8.85781,8.85781 z"
           sodipodi:ry="8.8578053"
           sodipodi:rx="8.8578053"
           sodipodi:cy="154.98523"
           sodipodi:cx="111.93044"
           id="path3148"
           style="color:#000000;fill:#36630a;fill-opacity:1;fill-rule:nonzero;stroke:none;stroke-width:3;marker:none;visibility:visible;display:inline;overflow:visible;enable-background:accumulate"
           sodipodi:type="arc" />
      </g>
    </g>
    <g
       id="use5101"
       style="display:inline"
       transform="matrix(0.61403493,0,0,0.61403493,-24.783904,349.47024)">
      <g
         id="g3174">
        <path
           sodipodi:type="arc"
           style="color:#000000;fill:#4e9a06;fill-opacity:1;fill-rule:nonzero;stroke:none;stroke-width:3;marker:none;visibility:visible;display:inline;overflow:visible;enable-background:accumulate"
           id="path3176"
           sodipodi:cx="111.93044"
           sodipodi:cy="154.98523"
           sodipodi:rx="8.8578053"
           sodipodi:ry="8.8578053"
           d="m 120.78825,154.98523 c 0,4.89203 -3.96578,8.8578 -8.85781,8.8578 -4.89203,0 -8.8578,-3.96577 -8.8578,-8.8578 0,-4.89203 3.96577,-8.85781 8.8578,-8.85781 4.89203,0 8.85781,3.96578 8.85781,8.85781 z"
           transform="translate(45.775429,31.024559)" />
        <path
           transform="translate(45.775429,31.024559)"
           d="m 120.78825,154.98523 c 0,4.89203 -3.96578,8.8578 -8.85781,8.8578 -4.89203,0 -8.8578,-3.96577 -8.8578,-8.8578 0,-4.89203 3.96577,-8.85781 8.8578,-8.85781 4.89203,0 8.85781,3.96578 8.85781,8.85781 z"
           sodipodi:ry="8.8578053"
           sodipodi:rx="8.8578053"
           sodipodi:cy="154.98523"
           sodipodi:cx="111.93044"
           id="path3178"
           style="color:#000000;fill:url(#radialGradient4314);fill-opacity:1;fill-rule:nonzero;stroke:none;stroke-width:3;marker:none;visibility:visible;display:inline;overflow:visible;enable-background:accumulate"
           sodipodi:type="arc" />
      </g>
    </g>
    <g
       id="use5103"
       style="display:inline"
       transform="matrix(0.61403493,0,0,0.61403493,-24.783904,393.99097)">
      <g
         id="g3184">
        <path
           sodipodi:type="arc"
           style="color:#000000;fill:#4e9a06;fill-opacity:1;fill-rule:nonzero;stroke:none;stroke-width:3;marker:none;visibility:visible;display:inline;overflow:visible;enable-background:accumulate"
           id="path3186"
           sodipodi:cx="111.93044"
           sodipodi:cy="154.98523"
           sodipodi:rx="8.8578053"
           sodipodi:ry="8.8578053"
           d="m 120.78825,154.98523 c 0,4.89203 -3.96578,8.8578 -8.85781,8.8578 -4.89203,0 -8.8578,-3.96577 -8.8578,-8.8578 0,-4.89203 3.96577,-8.85781 8.8578,-8.85781 4.89203,0 8.85781,3.96578 8.85781,8.85781 z"
           transform="translate(45.775429,31.024559)" />
        <path
           transform="translate(45.775429,31.024559)"
           d="m 120.78825,154.98523 c 0,4.89203 -3.96578,8.8578 -8.85781,8.8578 -4.89203,0 -8.8578,-3.96577 -8.8578,-8.8578 0,-4.89203 3.96577,-8.85781 8.8578,-8.85781 4.89203,0 8.85781,3.96578 8.85781,8.85781 z"
           sodipodi:ry="8.8578053"
           sodipodi:rx="8.8578053"
           sodipodi:cy="154.98523"
           sodipodi:cx="111.93044"
           id="path3188"
           style="color:#000000;fill:url(#radialGradient4316);fill-opacity:1;fill-rule:nonzero;stroke:none;stroke-width:3;marker:none;visibility:visible;display:inline;overflow:visible;enable-background:accumulate"
           sodipodi:type="arc" />
      </g>
    </g>
    <g
       id="use5105"
       style="display:inline"
       transform="matrix(0.61403493,0,0,0.61403493,-24.783904,418.58864)">
      <g
         id="g3194">
        <path
           sodipodi:type="arc"
           style="color:#000000;fill:#4e9a06;fill-opacity:1;fill-rule:nonzero;stroke:none;stroke-width:3;marker:none;visibility:visible;display:inline;overflow:visible;enable-background:accumulate"
           id="path3196"
           sodipodi:cx="111.93044"
           sodipodi:cy="154.98523"
           sodipodi:rx="8.8578053"
           sodipodi:ry="8.8578053"
           d="m 120.78825,154.98523 c 0,4.89203 -3.96578,8.8578 -8.85781,8.8578 -4.89203,0 -8.8578,-3.96577 -8.8578,-8.8578 0,-4.89203 3.96577,-8.85781 8.8578,-8.85781 4.89203,0 8.85781,3.96578 8.85781,8.85781 z"
           transform="translate(45.775429,31.024559)" />
        <path
           transform="translate(45.775429,31.024559)"
           d="m 120.78825,154.98523 c 0,4.89203 -3.96578,8.8578 -8.85781,8.8578 -4.89203,0 -8.8578,-3.96577 -8.8578,-8.8578 0,-4.89203 3.96577,-8.85781 8.8578,-8.85781 4.89203,0 8.85781,3.96578 8.85781,8.85781 z"
           sodipodi:ry="8.8578053"
           sodipodi:rx="8.8578053"
           sodipodi:cy="154.98523"
           sodipodi:cx="111.93044"
           id="path3198"
           style="color:#000000;fill:url(#radialGradient4318);fill-opacity:1;fill-rule:nonzero;stroke:none;stroke-width:3;marker:none;visibility:visible;display:inline;overflow:visible;enable-background:accumulate"
           sodipodi:type="arc" />
      </g>
    </g>
    <g
       id="use5097"
       style="display:inline"
       transform="matrix(0.61403493,0,0,0.61403493,-24.783904,271.70315)">
      <g
         id="g3154">
        <path
           sodipodi:type="arc"
           style="color:#000000;fill:#4e9a06;fill-opacity:1;fill-rule:nonzero;stroke:none;stroke-width:3;marker:none;visibility:visible;display:inline;overflow:visible;enable-background:accumulate"
           id="path3156"
           sodipodi:cx="111.93044"
           sodipodi:cy="154.98523"
           sodipodi:rx="8.8578053"
           sodipodi:ry="8.8578053"
           d="m 120.78825,154.98523 c 0,4.89203 -3.96578,8.8578 -8.85781,8.8578 -4.89203,0 -8.8578,-3.96577 -8.8578,-8.8578 0,-4.89203 3.96577,-8.85781 8.8578,-8.85781 4.89203,0 8.85781,3.96578 8.85781,8.85781 z"
           transform="translate(45.775429,31.024559)" />
        <path
           transform="translate(45.775429,31.024559)"
           d="m 120.78825,154.98523 c 0,4.89203 -3.96578,8.8578 -8.85781,8.8578 -4.89203,0 -8.8578,-3.96577 -8.8578,-8.8578 0,-4.89203 3.96577,-8.85781 8.8578,-8.85781 4.89203,0 8.85781,3.96578 8.85781,8.85781 z"
           sodipodi:ry="8.8578053"
           sodipodi:rx="8.8578053"
           sodipodi:cy="154.98523"
           sodipodi:cx="111.93044"
           id="path3158"
           style="color:#000000;fill:url(#radialGradient4308);fill-opacity:1;fill-rule:nonzero;stroke:none;stroke-width:3;marker:none;visibility:visible;display:inline;overflow:visible;enable-background:accumulate"
           sodipodi:type="arc" />
      </g>
    </g>
    <g
       id="use5099"
       style="display:inline"
       transform="matrix(0.61403493,0,0,0.61403493,-24.783904,294.3868)">
      <g
         id="g3164">
        <path
           sodipodi:type="arc"
           style="color:#000000;fill:#4e9a06;fill-opacity:1;fill-rule:nonzero;stroke:none;stroke-width:3;marker:none;visibility:visible;display:inline;overflow:visible;enable-background:accumulate"
           id="path3166"
           sodipodi:cx="111.93044"
           sodipodi:cy="154.98523"
           sodipodi:rx="8.8578053"
           sodipodi:ry="8.8578053"
           d="m 120.78825,154.98523 c 0,4.89203 -3.96578,8.8578 -8.85781,8.8578 -4.89203,0 -8.8578,-3.96577 -8.8578,-8.8578 0,-4.89203 3.96577,-8.85781 8.8578,-8.85781 4.89203,0 8.85781,3.96578 8.85781,8.85781 z"
           transform="translate(45.775429,31.024559)" />
        <path
           transform="translate(45.775429,31.024559)"
           d="m 120.78825,154.98523 c 0,4.89203 -3.96578,8.8578 -8.85781,8.8578 -4.89203,0 -8.8578,-3.96577 -8.8578,-8.8578 0,-4.89203 3.96577,-8.85781 8.8578,-8.85781 4.89203,0 8.85781,3.96578 8.85781,8.85781 z"
           sodipodi:ry="8.8578053"
           sodipodi:rx="8.8578053"
           sodipodi:cy="154.98523"
           sodipodi:cx="111.93044"
           id="path3168"
           style="color:#000000;fill:url(#radialGradient4310);fill-opacity:1;fill-rule:nonzero;stroke:none;stroke-width:3;marker:none;visibility:visible;display:inline;overflow:visible;enable-background:accumulate"
           sodipodi:type="arc" />
      </g>
    </g>
    <g
       id="use3056"
       style="display:inline"
       transform="matrix(0.61403493,0,0,0.61403493,-24.783904,244.61953)">
      <g
         id="g3204">
        <path
           sodipodi:type="arc"
           style="color:#000000;fill:#4e9a06;fill-opacity:1;fill-rule:nonzero;stroke:none;stroke-width:3;marker:none;visibility:visible;display:inline;overflow:visible;enable-background:accumulate"
           id="path3206"
           sodipodi:cx="111.93044"
           sodipodi:cy="154.98523"
           sodipodi:rx="8.8578053"
           sodipodi:ry="8.8578053"
           d="m 120.78825,154.98523 c 0,4.89203 -3.96578,8.8578 -8.85781,8.8578 -4.89203,0 -8.8578,-3.96577 -8.8578,-8.8578 0,-4.89203 3.96577,-8.85781 8.8578,-8.85781 4.89203,0 8.85781,3.96578 8.85781,8.85781 z"
           transform="translate(45.775429,31.024559)" />
        <path
           transform="translate(45.775429,31.024559)"
           d="m 120.78825,154.98523 c 0,4.89203 -3.96578,8.8578 -8.85781,8.8578 -4.89203,0 -8.8578,-3.96577 -8.8578,-8.8578 0,-4.89203 3.96577,-8.85781 8.8578,-8.85781 4.89203,0 8.85781,3.96578 8.85781,8.85781 z"
           sodipodi:ry="8.8578053"
           sodipodi:rx="8.8578053"
           sodipodi:cy="154.98523"
           sodipodi:cx="111.93044"
           id="path3208"
           style="color:#000000;fill:url(#radialGradient4312);fill-opacity:1;fill-rule:nonzero;stroke:none;stroke-width:3;marker:none;visibility:visible;display:inline;overflow:visible;enable-background:accumulate"
           sodipodi:type="arc" />
      </g>
    </g>
    <path
       style="color:#000000;fill:none;stroke:#fcaf3e;stroke-width:3;marker:none;visibility:visible;display:inline;overflow:visible;enable-background:accumulate"
       d="m 352.36968,161.67531 0,88.80582"
       id="path4530"
       inkscape:connector-curvature="0" />
    <path
       inkscape:connector-curvature="0"
       id="path4532"
       d="m 353.34923,72.918472 0,88.805818"
       style="color:#000000;fill:none;stroke:#fcaf3e;stroke-width:3;marker:none;visibility:visible;display:inline;overflow:visible;enable-background:accumulate" />
    <path
       style="color:#000000;fill:none;stroke:#fcaf3e;stroke-width:3;marker:none;visibility:visible;display:inline;overflow:visible;enable-background:accumulate"
       d="m 353.34923,250.33832 0,88.80582"
       id="path4534"
       inkscape:connector-curvature="0" />
    <path
       inkscape:connector-curvature="0"
       id="path4536"
       d="m 353.34923,339.10485 0,88.80582"
       style="color:#000000;fill:none;stroke:#fcaf3e;stroke-width:3;marker:none;visibility:visible;display:inline;overflow:visible;enable-background:accumulate" />
    <path
       style="color:#000000;fill:none;stroke:#fcaf3e;stroke-width:3;marker:none;visibility:visible;display:inline;overflow:visible;enable-background:accumulate"
       d="m 353.34923,427.87139 0,88.80582"
       id="path4538"
       inkscape:connector-curvature="0" />
    <path
       inkscape:connector-curvature="0"
       id="path4540"
       d="m 353.34923,516.63829 0,88.80582"
       style="color:#000000;fill:none;stroke:#fcaf3e;stroke-width:3;marker:none;visibility:visible;display:inline;overflow:visible;enable-background:accumulate" />
  </g>
  <g
     inkscape:label="learning curve"
     inkscape:groupmode="layer"
     id="layer1"
     transform="translate(-51.4375,-36.855919)"
     style="display:inline">
    <path
       style="color:#000000;fill:none;stroke:#4e9a06;stroke-width:5;stroke-linecap:butt;stroke-linejoin:miter;stroke-miterlimit:4;stroke-opacity:1;stroke-dasharray:none;stroke-dashoffset:0;marker:none;visibility:visible;display:inline;overflow:visible;enable-background:accumulate"
       d="m 242.30576,635.29984 0,-90.72682 37.094,0 0,-88.87623 37.45931,0 0,-88.70306 37.39044,0 0,-88.7312 37.094,0 c 0,0 0,-18.36153 0,-27.5423 0,-132.95779 -1.23087,-150.59812 147.95312,-150.59812"
       id="path3756"
       inkscape:connector-curvature="0"
       sodipodi:nodetypes="ccccccccccc" />
    <text
       xml:space="preserve"
       style="font-size:32px;font-style:normal;font-variant:normal;font-weight:normal;font-stretch:normal;text-align:start;line-height:125%;letter-spacing:0px;word-spacing:0px;writing-mode:lr-tb;text-anchor:start;fill:#000000;fill-opacity:1;stroke:none;font-family:Sans;-inkscape-font-specification:Sans"
       x="300.35229"
       y="512.2356"
       id="text3758"
       sodipodi:linespacing="125%"><tspan
         sodipodi:role="line"
         id="tspan3760"
         x="300.35229"
         y="512.2356">Novice</tspan></text>
    <text
       xml:space="preserve"
       style="font-size:32px;font-style:normal;font-variant:normal;font-weight:normal;font-stretch:normal;text-align:start;line-height:125%;letter-spacing:0px;word-spacing:0px;writing-mode:lr-tb;text-anchor:start;fill:#000000;fill-opacity:1;stroke:none;font-family:Sans;-inkscape-font-specification:Sans"
       x="340.60489"
       y="420.36755"
       id="text3762"
       sodipodi:linespacing="125%"><tspan
         sodipodi:role="line"
         id="tspan3764"
         x="340.60489"
         y="420.36755">Advanced Beginner</tspan></text>
    <text
       xml:space="preserve"
       style="font-size:32px;font-style:normal;font-variant:normal;font-weight:normal;font-stretch:normal;text-align:start;line-height:125%;letter-spacing:0px;word-spacing:0px;writing-mode:lr-tb;text-anchor:start;fill:#000000;fill-opacity:1;stroke:none;font-family:Sans;-inkscape-font-specification:Sans"
       x="376.79214"
       y="331.31979"
       id="text3766"
       sodipodi:linespacing="125%"><tspan
         sodipodi:role="line"
         id="tspan3768"
         x="376.79214"
         y="331.31979">Competent</tspan></text>
    <text
       xml:space="preserve"
       style="font-size:32px;font-style:normal;font-variant:normal;font-weight:normal;font-stretch:normal;text-align:start;line-height:125%;letter-spacing:0px;word-spacing:0px;writing-mode:lr-tb;text-anchor:start;fill:#000000;fill-opacity:1;stroke:none;font-family:Sans;-inkscape-font-specification:Sans"
       x="412.71732"
       y="246.03955"
       id="text3770"
       sodipodi:linespacing="125%"><tspan
         sodipodi:role="line"
         id="tspan3772"
         x="412.71732"
         y="246.03955">Proficient</tspan></text>
    <text
       xml:space="preserve"
       style="font-size:32px;font-style:normal;font-variant:normal;font-weight:normal;font-stretch:normal;text-align:start;line-height:125%;letter-spacing:0px;word-spacing:0px;writing-mode:lr-tb;text-anchor:start;fill:#000000;fill-opacity:1;stroke:none;font-family:Sans;-inkscape-font-specification:Sans"
       x="417.99594"
       y="153.68896"
       id="text3774"
       sodipodi:linespacing="125%"><tspan
         sodipodi:role="line"
         id="tspan3776"
         x="417.99594"
         y="153.68896">Expert</tspan></text>
    <path
       style="color:#000000;fill:none;stroke:#2e3436;stroke-width:3;stroke-linecap:butt;stroke-linejoin:miter;stroke-miterlimit:4;stroke-opacity:1;stroke-dasharray:none;stroke-dashoffset:0;marker:none;marker-end:url(#Arrow1Lend);visibility:visible;display:inline;overflow:visible;enable-background:accumulate"
       d="m 61.423106,644.60785 584.705694,0"
       id="path4596"
       inkscape:connector-curvature="0"
       sodipodi:nodetypes="cc" />
    <path
       style="color:#000000;fill:none;stroke:#2e3436;stroke-width:3;stroke-linecap:butt;stroke-linejoin:miter;stroke-miterlimit:4;stroke-opacity:1;stroke-dasharray:none;stroke-dashoffset:0;marker:none;marker-end:url(#Arrow1Lend);visibility:visible;display:inline;overflow:visible;enable-background:accumulate"
       d="m 89.79652,673.05709 0,-567.58339"
       id="path3778"
       inkscape:connector-curvature="0"
       sodipodi:nodetypes="cc" />
    <text
       xml:space="preserve"
       style="font-size:40px;font-style:normal;font-weight:normal;line-height:125%;letter-spacing:0px;word-spacing:0px;fill:#000000;fill-opacity:1;stroke:none;display:inline;font-family:Sans"
       x="104.8357"
       y="77.246544"
       id="text5048"
       sodipodi:linespacing="125%"><tspan
         sodipodi:role="line"
         id="tspan5050"
         x="104.8357"
         y="77.246544">The Vim Learning Curve</tspan></text>
    <text
       xml:space="preserve"
       style="font-size:20px;font-style:normal;font-variant:normal;font-weight:normal;font-stretch:normal;text-align:end;line-height:125%;letter-spacing:0px;word-spacing:0px;writing-mode:lr-tb;text-anchor:end;fill:#000000;fill-opacity:1;stroke:none;font-family:Sans;-inkscape-font-specification:Sans"
       x="367.59372"
       y="226.84912"
       id="text4994"
       sodipodi:linespacing="125%"><tspan
         sodipodi:role="line"
         id="tspan4996"
         x="367.59372"
         y="226.84912">plugins</tspan><tspan
         sodipodi:role="line"
         x="367.59372"
         y="251.84912"
         id="tspan4998">usr_41</tspan></text>
    <text
       xml:space="preserve"
       style="font-size:20px;font-style:normal;font-variant:normal;font-weight:normal;font-stretch:normal;text-align:end;line-height:125%;letter-spacing:0px;word-spacing:0px;writing-mode:lr-tb;text-anchor:end;fill:#000000;fill-opacity:1;stroke:none;font-family:Sans;-inkscape-font-specification:Sans"
       x="330.5585"
       y="303.3735"
       id="text4986"
       sodipodi:linespacing="125%"><tspan
         sodipodi:role="line"
         id="tspan4988"
         x="330.5585"
         y="303.3735">macros</tspan><tspan
         sodipodi:role="line"
         x="330.5585"
         y="328.3735"
         id="tspan4990">regexp</tspan><tspan
         sodipodi:role="line"
         x="330.5585"
         y="353.3735"
         id="tspan4992">viml</tspan></text>
    <text
       xml:space="preserve"
       style="font-size:20px;font-style:normal;font-variant:normal;font-weight:normal;font-stretch:normal;text-align:end;line-height:125%;letter-spacing:0px;word-spacing:0px;writing-mode:lr-tb;text-anchor:end;fill:#000000;fill-opacity:1;stroke:none;font-family:Sans;-inkscape-font-specification:Sans"
       x="373.06815"
       y="153.68896"
       id="text5000"
       sodipodi:linespacing="125%"><tspan
         sodipodi:role="line"
         x="373.06815"
         y="153.68896"
         id="tspan4486">teaches best-practice</tspan></text>
    <text
       xml:space="preserve"
       style="font-size:20px;font-style:normal;font-variant:normal;font-weight:normal;font-stretch:normal;text-align:end;line-height:125%;letter-spacing:0px;word-spacing:0px;writing-mode:lr-tb;text-anchor:end;fill:#000000;fill-opacity:1;stroke:none;font-family:Sans;-inkscape-font-specification:Sans"
       x="256.66165"
       y="512.2356"
       id="text4976"
       sodipodi:linespacing="125%"><tspan
         sodipodi:role="line"
         x="256.66165"
         y="512.2356"
         id="tspan4980">modal editing</tspan></text>
    <text
       xml:space="preserve"
       style="font-size:20px;font-style:normal;font-variant:normal;font-weight:normal;font-stretch:normal;text-align:end;line-height:125%;letter-spacing:0px;word-spacing:0px;writing-mode:lr-tb;text-anchor:end;fill:#000000;fill-opacity:1;stroke:none;font-family:Sans;-inkscape-font-specification:Sans"
       x="217.92787"
       y="584.02887"
       id="text4972"
       sodipodi:linespacing="125%"><tspan
         sodipodi:role="line"
         id="tspan4974"
         x="217.92787"
         y="584.02887">:quit</tspan><tspan
         sodipodi:role="line"
         x="217.92787"
         y="609.02887"
         id="tspan5033">vimtutor</tspan></text>
    <text
       xml:space="preserve"
       style="font-size:20px;font-style:normal;font-variant:normal;font-weight:normal;font-stretch:normal;text-align:end;line-height:125%;letter-spacing:0px;word-spacing:0px;writing-mode:lr-tb;text-anchor:end;fill:#000000;fill-opacity:1;stroke:none;font-family:Sans;-inkscape-font-specification:Sans"
       x="293.25793"
       y="393.99548"
       id="text4982"
       sodipodi:linespacing="125%"><tspan
         sodipodi:role="line"
         id="tspan4984"
         x="293.25793"
         y="393.99548">text-objects</tspan><tspan
         sodipodi:role="line"
         x="293.25793"
         y="418.99548"
         id="tspan4484">maps &amp; commands</tspan><tspan
         sodipodi:role="line"
         x="293.25793"
         y="443.99548"
         id="tspan3054">vimrc</tspan></text>
  </g>
</svg>
